<svg xmlns="http://www.w3.org/2000/svg" width="900" height="321" viewBox="0 0 900 321" role="img" aria-label="Andrés García, Senior SRE / Platform Engineer, available for remote roles">
<style>text{font-family:ui-monospace,SFMono-Regular,Menlo,Consolas,"Liberation Mono",monospace;font-size:17px}</style>
<rect x="1" y="1" width="898" height="319" rx="12" fill="#ffffff" stroke="#d0d7de"/>
<path d="M1 44V13a12 12 0 0 1 12-12h874a12 12 0 0 1 12 12v31z" fill="#f6f8fa"/>
<line x1="1" y1="44" x2="899" y2="44" stroke="#d0d7de"/>
<circle cx="26" cy="23" r="6" fill="#ff5f57"/><circle cx="46" cy="23" r="6" fill="#febc2e"/><circle cx="66" cy="23" r="6" fill="#28c840"/>
<text x="450.0" y="28" text-anchor="middle" fill="#656d76" style="font-size:14px">andres@platform: ~</text>
<text x="40" y="86" fill="#8250df">$</text>
<text x="62" y="86" fill="#0969da">kubectl describe engineer andres</text>
<text x="40" y="123" fill="#656d76">Name:</text>
<text x="200" y="123" fill="#1f2328">Andrés García</text>
<text x="40" y="154" fill="#656d76">Role:</text>
<text x="200" y="154" fill="#1f2328">Senior SRE / Platform Engineer</text>
<text x="40" y="185" fill="#656d76">Experience:</text>
<text x="200" y="185" fill="#1f2328">9+ years · multi-cloud · multi-region · regulated</text>
<text x="40" y="216" fill="#656d76">Stack:</text>
<text x="200" y="216" fill="#1f2328">AWS · GCP · Kubernetes · Terraform · ArgoCD · Go</text>
<text x="40" y="247" fill="#656d76">Location:</text>
<text x="200" y="247" fill="#1f2328">Guadalajara, MX (UTC-6) · remote</text>
<text x="40" y="278" fill="#656d76">Status:</text>
<circle cx="206" cy="272" r="6" fill="#1a7f37"><animate attributeName="opacity" values="1;0.35;1" dur="2s" repeatCount="indefinite"/></circle>
<text x="222" y="278" fill="#1a7f37" font-weight="bold">Available — open to remote roles</text>
<text x="40" y="309" fill="#8250df">$</text>
<rect x="62" y="294" width="10" height="19" fill="#1f2328"><animate attributeName="opacity" values="1;1;0;0" keyTimes="0;0.5;0.51;1" dur="1.1s" repeatCount="indefinite"/></rect>
</svg>